<svg width="167" height="36" viewBox="0 0 167 36" fill="none" xmlns="http://www.w3.org/2000/svg">
<path d="M0 35.0037V0H11.2216C15.2384 0 18.2944 0.825719 20.3895 2.47715C22.4847 4.12859 23.5384 6.52392 23.5507 9.66313C23.6028 11.2827 23.2227 12.8864 22.4505 14.305L20.6169 17.4033C20.5978 17.4354 20.5852 17.4711 20.5798 17.5083C20.5745 17.5454 20.5765 17.5833 20.5857 17.6196C20.5949 17.656 20.6112 17.6901 20.6335 17.72C20.6559 17.7499 20.6839 17.775 20.7159 17.7938C21.5998 18.2847 22.3544 18.9837 22.9162 19.8321C23.8147 21.2703 24.2622 22.951 24.1998 24.6525C24.1998 28.0818 23.2304 30.6582 21.2917 32.3815C19.353 34.1049 16.4816 34.9826 12.6775 35.0149L0 35.0037ZM7.5324 14.61H11.449C13.0919 14.5951 14.2641 14.2579 14.9658 13.5983C15.6662 12.94 16.0183 11.9655 16.0183 10.6823C16.0183 9.19448 15.6393 8.12947 14.8814 7.48725C14.1236 6.84503 12.9012 6.51895 11.2143 6.50903H7.5324V14.61ZM7.5324 20.1408V28.5282H12.4648C13.8216 28.5282 14.8668 28.1822 15.5965 27.483C16.3263 26.7837 16.6967 25.8055 16.6967 24.5409C16.6967 21.6224 15.4034 20.1557 12.8168 20.1408H7.5324Z" fill="#3A60AC"/>
<path d="M38.1681 32.2997C36.8283 33.9957 35.0229 34.8438 32.7516 34.8438C30.5269 34.8438 28.8424 34.2028 27.6983 32.9208C26.5541 31.6389 25.982 29.7965 25.982 27.3937V14.3757H32.3006V27.4346C32.3006 29.1555 33.144 30.0159 34.8309 30.0159C36.2831 30.0159 37.3148 29.5026 37.926 28.4761V14.3719H44.2813V34.4569H38.3551L38.1681 32.2997Z" fill="#3A60AC"/>
<path d="M54.1607 27.3603L52.3821 29.1158V34.8438H46.0635V6.30075H52.3821V21.4538L53.0202 20.6169L57.7875 14.7513H65.3566L58.2533 23.0122L65.8223 34.8438H58.587L54.1607 27.3603Z" fill="#3A60AC"/>
<path d="M78.0744 0.1339L85.4528 24.2806L92.8128 0.130188H103.305V34.8438H95.3102V26.7391L96.0803 10.1467L88.0931 34.8438H82.8197L74.8033 10.1243L75.5734 26.7391V34.8438H67.6046V0.1339H78.0744Z" fill="#263B7F"/>
<path d="M105.087 34.8438V0.133888H116.11C118.963 0.0902891 121.776 0.81001 124.266 2.2205C126.663 3.59869 128.624 5.64104 129.917 8.10838C131.291 10.731 131.998 13.6599 131.975 16.6296V18.229C132.025 21.204 131.342 24.1447 129.987 26.7837C128.711 29.2469 126.773 31.2934 124.398 32.6865C121.947 34.1227 119.161 34.8675 116.33 34.8438H105.087ZM113.334 6.59458V28.4054H116.202C118.569 28.4054 120.386 27.5524 121.655 25.8464C122.924 24.1404 123.559 21.6013 123.559 18.229V16.7412C123.559 13.3912 122.924 10.8645 121.655 9.16099C120.386 7.45749 118.538 6.60697 116.11 6.60945L113.334 6.59458Z" fill="#263B7F"/>
<path d="M147.443 0.628586H153.31C154.088 0.628586 154.835 0.942079 155.385 1.5001C155.935 2.05813 156.244 2.81498 156.244 3.60414V11.5154H164.044C164.822 11.5154 165.569 11.8289 166.119 12.3869C166.669 12.9449 166.978 13.7018 166.978 14.491V20.4421C166.978 21.2312 166.669 21.9881 166.119 22.5461C165.569 23.1041 164.822 23.4176 164.044 23.4176H156.259V31.3475C156.259 32.1367 155.95 32.8935 155.4 33.4515C154.849 34.0096 154.103 34.3231 153.325 34.3231H147.458C146.679 34.3231 145.933 34.0096 145.383 33.4515C144.833 32.8935 144.524 32.1367 144.524 31.3475V23.4511H136.702C135.924 23.4511 135.177 23.1376 134.627 22.5796C134.077 22.0216 133.768 21.2647 133.768 20.4755V14.5244C133.768 13.7353 134.077 12.9784 134.627 12.4204C135.177 11.8624 135.924 11.5489 136.702 11.5489H144.502V3.6153C144.502 2.82613 144.811 2.06929 145.361 1.51126C145.911 0.953237 146.657 0.639744 147.436 0.639744L147.443 0.628586ZM153.31 2.55898H147.443C147.306 2.55875 147.171 2.58627 147.045 2.63993C146.919 2.69359 146.805 2.7723 146.709 2.87141C146.612 2.96846 146.534 3.08414 146.48 3.2118C146.427 3.33946 146.399 3.47659 146.398 3.6153V12.4899C146.398 12.6162 146.374 12.7414 146.327 12.8583C146.279 12.9751 146.21 13.0814 146.122 13.1709C146.034 13.2604 145.93 13.3314 145.815 13.3798C145.699 13.4283 145.576 13.4532 145.452 13.4532H136.702C136.425 13.4532 136.16 13.5644 135.964 13.7624C135.768 13.9604 135.658 14.2291 135.657 14.5096V20.4607C135.659 20.7406 135.771 21.0081 135.966 21.2057C136.162 21.4033 136.426 21.5151 136.702 21.517H145.452C145.576 21.517 145.699 21.5419 145.815 21.5904C145.93 21.6389 146.034 21.7099 146.122 21.7994C146.21 21.8889 146.279 21.9951 146.327 22.112C146.374 22.2288 146.398 22.354 146.398 22.4803V31.3475C146.402 31.6274 146.513 31.8948 146.708 32.0928C146.903 32.2908 147.167 32.4037 147.443 32.4075H153.31C153.587 32.4066 153.852 32.2944 154.047 32.0957C154.242 31.8971 154.352 31.628 154.352 31.3475V22.4878C154.352 22.2323 154.452 21.9873 154.63 21.8066C154.808 21.6259 155.05 21.5244 155.302 21.5244H164.055C164.192 21.5247 164.327 21.4971 164.453 21.4435C164.579 21.3898 164.693 21.3111 164.789 21.212C164.984 21.0152 165.095 20.7477 165.097 20.4681V14.517C165.096 14.2365 164.985 13.9678 164.789 13.7698C164.593 13.5718 164.328 13.4607 164.052 13.4607H155.309C155.057 13.4607 154.816 13.3592 154.637 13.1785C154.459 12.9979 154.359 12.7528 154.359 12.4973V3.6153C154.357 3.33654 154.248 3.06955 154.055 2.87141C153.859 2.67665 153.596 2.56607 153.321 2.56269L153.31 2.55898Z" fill="#3A60AC"/>
</svg>
